<?xml version="1.0" encoding="UTF-8" standalone="no"?>
<!DOCTYPE svg PUBLIC "-//W3C//DTD SVG 1.1//EN" "http://www.w3.org/Graphics/SVG/1.1/DTD/svg11.dtd">
<svg xmlns="http://www.w3.org/2000/svg" version="1.1" viewBox="0.00 0.00 512.00 512.00">
<path fill="#cdcdcd" d="
  M 400.00 436.75
  C 400.00 444.67 393.97 452.15 386.98 454.68
  Q 383.31 456.00 372.36 456.00
  Q 254.26 456.00 136.16 456.00
  Q 128.78 456.00 125.03 454.63
  Q 116.52 451.50 113.39 443.05
  Q 112.00 439.29 112.00 431.76
  Q 111.99 286.80 112.01 141.85
  C 112.01 135.23 113.52 130.85 117.87 126.37
  Q 149.33 93.95 180.80 61.54
  C 184.65 57.57 189.75 56.01 195.67 56.01
  Q 288.33 55.99 381.00 56.00
  C 391.63 56.00 399.98 65.52 399.98 76.00
  Q 400.00 256.38 400.00 436.75
  Z
  M 214.40 138.13
  C 210.86 149.57 201.27 158.88 189.76 162.01
  Q 184.86 163.35 171.59 163.37
  Q 158.17 163.39 144.61 163.36
  Q 144.00 163.36 144.00 163.97
  L 144.00 423.50
  Q 144.00 424.00 144.50 424.00
  L 367.50 424.00
  Q 368.00 424.00 368.00 423.50
  L 368.00 88.25
  Q 368.00 88.00 367.75 88.00
  L 216.50 88.00
  Q 215.98 88.00 215.98 88.52
  Q 216.05 106.29 215.93 123.97
  Q 215.87 133.41 214.40 138.13
  Z
  M 159.10 131.00
  Q 169.13 131.65 179.06 131.15
  C 181.30 131.04 183.97 130.18 183.98 127.74
  Q 184.02 116.47 183.99 105.03
  A 0.24 0.24 0.0 0 0 183.58 104.86
  L 158.84 130.33
  Q 158.24 130.95 159.10 131.00
  Z"
/>
<rect fill="#cdcdcd" x="240.08" y="132.04" width="91.84" height="31.92" rx="15.40"/>
<rect fill="#cdcdcd" x="176.05" y="192.01" width="159.90" height="31.98" rx="15.65"/>
<rect fill="#cdcdcd" x="176.06" y="256.02" width="159.88" height="31.96" rx="15.65"/>
<path fill="#cdcdcd" d="
  M 339.98 355.98
  A 43.98 43.98 0.0 0 1 296.00 399.96
  A 43.98 43.98 0.0 0 1 252.02 355.98
  A 43.98 43.98 0.0 0 1 296.00 312.00
  A 43.98 43.98 0.0 0 1 339.98 355.98
  Z
  M 307.96 356.00
  A 11.96 11.96 0.0 0 0 296.00 344.04
  A 11.96 11.96 0.0 0 0 284.04 356.00
  A 11.96 11.96 0.0 0 0 296.00 367.96
  A 11.96 11.96 0.0 0 0 307.96 356.00
  Z"
/>
</svg>
