<?xml version="1.0" encoding="UTF-8" standalone="no"?>
<!DOCTYPE svg PUBLIC "-//W3C//DTD SVG 1.1//EN" "http://www.w3.org/Graphics/SVG/1.1/DTD/svg11.dtd">
<svg xmlns="http://www.w3.org/2000/svg" version="1.1" viewBox="0.00 0.00 512.00 512.00">
<path fill="#cdcdcd" d="
  M 456.00 376.08
  A 19.91 19.91 0.0 0 1 436.09 395.99
  L 75.91 395.99
  A 19.91 19.91 0.0 0 1 56.00 376.08
  L 56.00 135.90
  A 19.91 19.91 0.0 0 1 75.91 115.99
  L 436.09 115.99
  A 19.91 19.91 0.0 0 1 456.00 135.90
  L 456.00 376.08
  Z
  M 424.00 148.27
  A 0.27 0.27 0.0 0 0 423.73 148.00
  L 88.27 148.00
  A 0.27 0.27 0.0 0 0 88.00 148.27
  L 88.00 363.73
  A 0.27 0.27 0.0 0 0 88.27 364.00
  L 423.73 364.00
  A 0.27 0.27 0.0 0 0 424.00 363.73
  L 424.00 148.27
  Z"
/>
<rect fill="#cdcdcd" x="120.06" y="180.02" width="127.88" height="31.96" rx="15.57"/>
<path fill="#cdcdcd" d="
  M 256.00 316.02
  A 19.97 19.97 0.0 0 1 236.03 335.99
  L 131.97 335.99
  A 19.97 19.97 0.0 0 1 112.00 316.02
  L 112.00 259.96
  A 19.97 19.97 0.0 0 1 131.97 239.99
  L 236.03 239.99
  A 19.97 19.97 0.0 0 1 256.00 259.96
  L 256.00 316.02
  Z
  M 224.00 272.26
  A 0.26 0.26 0.0 0 0 223.74 272.00
  L 144.26 272.00
  A 0.26 0.26 0.0 0 0 144.00 272.26
  L 144.00 303.74
  A 0.26 0.26 0.0 0 0 144.26 304.00
  L 223.74 304.00
  A 0.26 0.26 0.0 0 0 224.00 303.74
  L 224.00 272.26
  Z"
/>
<rect fill="#cdcdcd" x="280.08" y="244.03" width="127.84" height="31.94" rx="15.56"/>
<rect fill="#cdcdcd" x="300.13" y="296.06" width="87.74" height="31.88" rx="15.36"/>
</svg>
